solid OpenSCAD_Model
  facet normal -1 0 0
    outer loop
      vertex -60.579 -38.1 -25.4
      vertex -60.579 -38.1 25.4
      vertex -60.579 38.1 -25.4
    endloop
  endfacet
  facet normal -1 0 0
    outer loop
      vertex -60.579 38.1 -25.4
      vertex -60.579 -38.1 25.4
      vertex -60.579 38.1 25.4
    endloop
  endfacet
  facet normal 0 -1 0
    outer loop
      vertex -60.579 -38.1 25.4
      vertex -60.579 -38.1 -25.4
      vertex 60.579 -38.1 -25.4
    endloop
  endfacet
  facet normal 0 -1 0
    outer loop
      vertex 24.0189 -38.1 -8.0196
      vertex -60.579 -38.1 25.4
      vertex 60.579 -38.1 -25.4
    endloop
  endfacet
  facet normal 0 -1 0
    outer loop
      vertex 21.825 -38.1 -5
      vertex -60.579 -38.1 25.4
      vertex 22.4314 -38.1 -6.86622
    endloop
  endfacet
  facet normal 0 -1 0
    outer loop
      vertex 22.4314 -38.1 -3.13378
      vertex -60.579 -38.1 25.4
      vertex 21.825 -38.1 -5
    endloop
  endfacet
  facet normal 0 -1 0
    outer loop
      vertex 60.579 -38.1 25.4
      vertex -60.579 -38.1 25.4
      vertex 22.4314 -38.1 -3.13378
    endloop
  endfacet
  facet normal 0 -1 0
    outer loop
      vertex 25.9811 -38.1 -1.9804
      vertex 27.5686 -38.1 -3.13378
      vertex 60.579 -38.1 25.4
    endloop
  endfacet
  facet normal 0 -1 0
    outer loop
      vertex 60.579 -38.1 25.4
      vertex 22.4314 -38.1 -3.13378
      vertex 24.0189 -38.1 -1.9804
    endloop
  endfacet
  facet normal 0 -1 0
    outer loop
      vertex 25.9811 -38.1 -8.0196
      vertex 24.0189 -38.1 -8.0196
      vertex 60.579 -38.1 -25.4
    endloop
  endfacet
  facet normal 0 -1 0
    outer loop
      vertex 34.0189 -38.1 -1.9804
      vertex 35.9811 -38.1 -1.9804
      vertex 60.579 -38.1 25.4
    endloop
  endfacet
  facet normal 0 -1 0
    outer loop
      vertex 34.0189 -38.1 -8.0196
      vertex 28.175 -38.1 -5
      vertex 60.579 -38.1 -25.4
    endloop
  endfacet
  facet normal 0 -1 0
    outer loop
      vertex 28.175 -38.1 -5
      vertex 27.5686 -38.1 -6.86622
      vertex 60.579 -38.1 -25.4
    endloop
  endfacet
  facet normal 0 -1 0
    outer loop
      vertex 27.5686 -38.1 -6.86622
      vertex 25.9811 -38.1 -8.0196
      vertex 60.579 -38.1 -25.4
    endloop
  endfacet
  facet normal 0 -1 0
    outer loop
      vertex 22.4314 -38.1 -6.86622
      vertex -60.579 -38.1 25.4
      vertex 24.0189 -38.1 -8.0196
    endloop
  endfacet
  facet normal 0 -1 0
    outer loop
      vertex 27.5686 -38.1 -3.13378
      vertex 28.175 -38.1 -5
      vertex 32.4314 -38.1 -6.86622
    endloop
  endfacet
  facet normal 0 -1 0
    outer loop
      vertex 35.9811 -38.1 -8.0196
      vertex 34.0189 -38.1 -8.0196
      vertex 60.579 -38.1 -25.4
    endloop
  endfacet
  facet normal 0 -1 0
    outer loop
      vertex 32.4314 -38.1 -3.13378
      vertex 27.5686 -38.1 -3.13378
      vertex 31.825 -38.1 -5
    endloop
  endfacet
  facet normal 0 -1 0
    outer loop
      vertex 60.579 -38.1 25.4
      vertex 27.5686 -38.1 -3.13378
      vertex 32.4314 -38.1 -3.13378
    endloop
  endfacet
  facet normal 0 -1 0
    outer loop
      vertex 37.5686 -38.1 -3.13378
      vertex 38.175 -38.1 -5
      vertex 60.579 -38.1 -25.4
    endloop
  endfacet
  facet normal 0 -1 0
    outer loop
      vertex 60.579 -38.1 25.4
      vertex 32.4314 -38.1 -3.13378
      vertex 34.0189 -38.1 -1.9804
    endloop
  endfacet
  facet normal 0 -1 0
    outer loop
      vertex 37.5686 -38.1 -6.86622
      vertex 35.9811 -38.1 -8.0196
      vertex 60.579 -38.1 -25.4
    endloop
  endfacet
  facet normal 0 -1 0
    outer loop
      vertex 60.579 -38.1 25.4
      vertex 37.5686 -38.1 -3.13378
      vertex 60.579 -38.1 -25.4
    endloop
  endfacet
  facet normal 0 -1 0
    outer loop
      vertex 60.579 -38.1 25.4
      vertex 35.9811 -38.1 -1.9804
      vertex 37.5686 -38.1 -3.13378
    endloop
  endfacet
  facet normal 0 -1 0
    outer loop
      vertex 38.175 -38.1 -5
      vertex 37.5686 -38.1 -6.86622
      vertex 60.579 -38.1 -25.4
    endloop
  endfacet
  facet normal 0 -1 0
    outer loop
      vertex 32.4314 -38.1 -6.86622
      vertex 28.175 -38.1 -5
      vertex 34.0189 -38.1 -8.0196
    endloop
  endfacet
  facet normal 0 -1 0
    outer loop
      vertex 24.0189 -38.1 -1.9804
      vertex 25.9811 -38.1 -1.9804
      vertex 60.579 -38.1 25.4
    endloop
  endfacet
  facet normal 0 -1 0
    outer loop
      vertex 32.4314 -38.1 -6.86622
      vertex 31.825 -38.1 -5
      vertex 27.5686 -38.1 -3.13378
    endloop
  endfacet
  facet normal 0 0 -1
    outer loop
      vertex -31.7439 24.9838 -25.4
      vertex -60.579 38.1 -25.4
      vertex 60.579 38.1 -25.4
    endloop
  endfacet
  facet normal 0 0 -1
    outer loop
      vertex -60.579 -38.1 -25.4
      vertex -60.579 38.1 -25.4
      vertex -40.872 20.9799 -25.4
    endloop
  endfacet
  facet normal 0 0 -1
    outer loop
      vertex -40.2356 22.8334 -25.4
      vertex -60.579 38.1 -25.4
      vertex -39.032 24.3799 -25.4
    endloop
  endfacet
  facet normal 0 0 -1
    outer loop
      vertex -60.579 -38.1 -25.4
      vertex -40.872 20.9799 -25.4
      vertex -40.872 19.0201 -25.4
    endloop
  endfacet
  facet normal 0 0 -1
    outer loop
      vertex -60.579 -38.1 -25.4
      vertex -40.872 19.0201 -25.4
      vertex -40.2356 17.1666 -25.4
    endloop
  endfacet
  facet normal 0 0 -1
    outer loop
      vertex -60.579 -38.1 -25.4
      vertex -40.2356 17.1666 -25.4
      vertex -39.032 15.6201 -25.4
    endloop
  endfacet
  facet normal 0 0 -1
    outer loop
      vertex -60.579 -38.1 -25.4
      vertex -39.032 15.6201 -25.4
      vertex -37.3914 14.5483 -25.4
    endloop
  endfacet
  facet normal 0 0 -1
    outer loop
      vertex 2.56863 -23.1338 -25.4
      vertex -37.3914 14.5483 -25.4
      vertex 60.579 -38.1 -25.4
    endloop
  endfacet
  facet normal 0 0 -1
    outer loop
      vertex -33.5386 14.229 -25.4
      vertex 60.579 -38.1 -25.4
      vertex -35.4916 14.0672 -25.4
    endloop
  endfacet
  facet normal 0 0 -1
    outer loop
      vertex -31.7439 15.0162 -25.4
      vertex 60.579 -38.1 -25.4
      vertex -33.5386 14.229 -25.4
    endloop
  endfacet
  facet normal 0 0 -1
    outer loop
      vertex -30.3021 16.3435 -25.4
      vertex 60.579 -38.1 -25.4
      vertex -31.7439 15.0162 -25.4
    endloop
  endfacet
  facet normal 0 0 -1
    outer loop
      vertex 2.56863 -26.8662 -25.4
      vertex 60.579 -38.1 -25.4
      vertex 0.981129 -28.0196 -25.4
    endloop
  endfacet
  facet normal 0 0 -1
    outer loop
      vertex -29.0468 20 -25.4
      vertex 60.579 -38.1 -25.4
      vertex -29.3694 18.067 -25.4
    endloop
  endfacet
  facet normal 0 0 -1
    outer loop
      vertex -30.3021 16.3435 -25.4
      vertex -29.3694 18.067 -25.4
      vertex 60.579 -38.1 -25.4
    endloop
  endfacet
  facet normal 0 0 -1
    outer loop
      vertex -35.4916 25.9328 -25.4
      vertex -60.579 38.1 -25.4
      vertex -33.5386 25.771 -25.4
    endloop
  endfacet
  facet normal 0 0 -1
    outer loop
      vertex 34.5084 25.9328 -25.4
      vertex -29.0468 20 -25.4
      vertex 60.579 38.1 -25.4
    endloop
  endfacet
  facet normal 0 0 -1
    outer loop
      vertex -39.032 24.3799 -25.4
      vertex -60.579 38.1 -25.4
      vertex -37.3914 25.4517 -25.4
    endloop
  endfacet
  facet normal 0 0 -1
    outer loop
      vertex -29.0468 20 -25.4
      vertex -29.3694 21.933 -25.4
      vertex 60.579 38.1 -25.4
    endloop
  endfacet
  facet normal 0 0 -1
    outer loop
      vertex -37.3914 25.4517 -25.4
      vertex -60.579 38.1 -25.4
      vertex -35.4916 25.9328 -25.4
    endloop
  endfacet
  facet normal 0 0 -1
    outer loop
      vertex -29.3694 21.933 -25.4
      vertex -30.3021 23.6565 -25.4
      vertex 60.579 38.1 -25.4
    endloop
  endfacet
  facet normal 0 0 -1
    outer loop
      vertex -33.5386 25.771 -25.4
      vertex -60.579 38.1 -25.4
      vertex -31.7439 24.9838 -25.4
    endloop
  endfacet
  facet normal 0 0 -1
    outer loop
      vertex -30.3021 23.6565 -25.4
      vertex -31.7439 24.9838 -25.4
      vertex 60.579 38.1 -25.4
    endloop
  endfacet
  facet normal 0 0 -1
    outer loop
      vertex -40.872 20.9799 -25.4
      vertex -60.579 38.1 -25.4
      vertex -40.2356 22.8334 -25.4
    endloop
  endfacet
  facet normal 0 0 -1
    outer loop
      vertex -60.579 -38.1 -25.4
      vertex -37.3914 14.5483 -25.4
      vertex -3.175 -25 -25.4
    endloop
  endfacet
  facet normal 0 0 -1
    outer loop
      vertex -60.579 -38.1 -25.4
      vertex -3.175 -25 -25.4
      vertex -2.56863 -26.8662 -25.4
    endloop
  endfacet
  facet normal 0 0 -1
    outer loop
      vertex -60.579 -38.1 -25.4
      vertex -2.56863 -26.8662 -25.4
      vertex -0.981129 -28.0196 -25.4
    endloop
  endfacet
  facet normal 0 0 -1
    outer loop
      vertex -60.579 -38.1 -25.4
      vertex -0.981129 -28.0196 -25.4
      vertex 60.579 -38.1 -25.4
    endloop
  endfacet
  facet normal 0 0 -1
    outer loop
      vertex -0.981129 -28.0196 -25.4
      vertex 0.981129 -28.0196 -25.4
      vertex 60.579 -38.1 -25.4
    endloop
  endfacet
  facet normal 0 0 -1
    outer loop
      vertex 3.175 -25 -25.4
      vertex 60.579 -38.1 -25.4
      vertex 2.56863 -26.8662 -25.4
    endloop
  endfacet
  facet normal 0 0 -1
    outer loop
      vertex 32.6086 14.5483 -25.4
      vertex 60.579 -38.1 -25.4
      vertex 30.968 15.6201 -25.4
    endloop
  endfacet
  facet normal 0 0 -1
    outer loop
      vertex -0.981129 -21.9804 -25.4
      vertex -37.3914 14.5483 -25.4
      vertex 0.981129 -21.9804 -25.4
    endloop
  endfacet
  facet normal 0 0 -1
    outer loop
      vertex 0.981129 -21.9804 -25.4
      vertex -37.3914 14.5483 -25.4
      vertex 2.56863 -23.1338 -25.4
    endloop
  endfacet
  facet normal 0 0 -1
    outer loop
      vertex 3.175 -25 -25.4
      vertex 2.56863 -23.1338 -25.4
      vertex 60.579 -38.1 -25.4
    endloop
  endfacet
  facet normal 0 0 -1
    outer loop
      vertex -2.56863 -23.1338 -25.4
      vertex -37.3914 14.5483 -25.4
      vertex -0.981129 -21.9804 -25.4
    endloop
  endfacet
  facet normal 0 0 -1
    outer loop
      vertex -3.175 -25 -25.4
      vertex -37.3914 14.5483 -25.4
      vertex -2.56863 -23.1338 -25.4
    endloop
  endfacet
  facet normal 0 0 -1
    outer loop
      vertex 29.128 19.0201 -25.4
      vertex -29.0468 20 -25.4
      vertex 29.128 20.9799 -25.4
    endloop
  endfacet
  facet normal 0 0 -1
    outer loop
      vertex 29.7644 17.1666 -25.4
      vertex -29.0468 20 -25.4
      vertex 29.128 19.0201 -25.4
    endloop
  endfacet
  facet normal 0 0 -1
    outer loop
      vertex 60.579 -38.1 -25.4
      vertex -29.0468 20 -25.4
      vertex 29.7644 17.1666 -25.4
    endloop
  endfacet
  facet normal 0 0 -1
    outer loop
      vertex 60.579 -38.1 -25.4
      vertex 29.7644 17.1666 -25.4
      vertex 30.968 15.6201 -25.4
    endloop
  endfacet
  facet normal 0 0 -1
    outer loop
      vertex 40.6306 18.067 -25.4
      vertex 60.579 38.1 -25.4
      vertex 39.6979 16.3435 -25.4
    endloop
  endfacet
  facet normal 0 0 -1
    outer loop
      vertex 60.579 -38.1 -25.4
      vertex 32.6086 14.5483 -25.4
      vertex 34.5084 14.0672 -25.4
    endloop
  endfacet
  facet normal 0 0 -1
    outer loop
      vertex 60.579 -38.1 -25.4
      vertex 34.5084 14.0672 -25.4
      vertex 36.4614 14.229 -25.4
    endloop
  endfacet
  facet normal 0 0 -1
    outer loop
      vertex 60.579 -38.1 -25.4
      vertex 36.4614 14.229 -25.4
      vertex 38.2561 15.0162 -25.4
    endloop
  endfacet
  facet normal 0 0 -1
    outer loop
      vertex 60.579 -38.1 -25.4
      vertex 38.2561 15.0162 -25.4
      vertex 39.6979 16.3435 -25.4
    endloop
  endfacet
  facet normal 0 0 -1
    outer loop
      vertex 60.579 -38.1 -25.4
      vertex 39.6979 16.3435 -25.4
      vertex 60.579 38.1 -25.4
    endloop
  endfacet
  facet normal 0 0 -1
    outer loop
      vertex 40.9531 20 -25.4
      vertex 60.579 38.1 -25.4
      vertex 40.6306 18.067 -25.4
    endloop
  endfacet
  facet normal 0 0 -1
    outer loop
      vertex 40.6306 21.933 -25.4
      vertex 60.579 38.1 -25.4
      vertex 40.9531 20 -25.4
    endloop
  endfacet
  facet normal 0 0 -1
    outer loop
      vertex 36.4614 25.771 -25.4
      vertex 60.579 38.1 -25.4
      vertex 38.2561 24.9838 -25.4
    endloop
  endfacet
  facet normal 0 0 -1
    outer loop
      vertex 40.6306 21.933 -25.4
      vertex 39.6979 23.6565 -25.4
      vertex 60.579 38.1 -25.4
    endloop
  endfacet
  facet normal 0 0 -1
    outer loop
      vertex 39.6979 23.6565 -25.4
      vertex 38.2561 24.9838 -25.4
      vertex 60.579 38.1 -25.4
    endloop
  endfacet
  facet normal 0 0 -1
    outer loop
      vertex 30.968 24.3799 -25.4
      vertex -29.0468 20 -25.4
      vertex 32.6086 25.4517 -25.4
    endloop
  endfacet
  facet normal 0 0 -1
    outer loop
      vertex 32.6086 25.4517 -25.4
      vertex -29.0468 20 -25.4
      vertex 34.5084 25.9328 -25.4
    endloop
  endfacet
  facet normal 0 0 -1
    outer loop
      vertex 36.4614 25.771 -25.4
      vertex 34.5084 25.9328 -25.4
      vertex 60.579 38.1 -25.4
    endloop
  endfacet
  facet normal 0 0 -1
    outer loop
      vertex 29.7644 22.8334 -25.4
      vertex -29.0468 20 -25.4
      vertex 30.968 24.3799 -25.4
    endloop
  endfacet
  facet normal 0 0 -1
    outer loop
      vertex 29.128 20.9799 -25.4
      vertex -29.0468 20 -25.4
      vertex 29.7644 22.8334 -25.4
    endloop
  endfacet
  facet normal 0 0 -1
    outer loop
      vertex -35.4916 14.0672 -25.4
      vertex 60.579 -38.1 -25.4
      vertex -37.3914 14.5483 -25.4
    endloop
  endfacet
  facet normal 0 1 0
    outer loop
      vertex -60.579 38.1 -25.4
      vertex -60.579 38.1 25.4
      vertex 60.579 38.1 -25.4
    endloop
  endfacet
  facet normal 0 1 0
    outer loop
      vertex 60.579 38.1 -25.4
      vertex -60.579 38.1 25.4
      vertex 60.579 38.1 25.4
    endloop
  endfacet
  facet normal 0 0 1
    outer loop
      vertex -49 -34.85 25.4
      vertex -60.579 -38.1 25.4
      vertex 60.579 -38.1 25.4
    endloop
  endfacet
  facet normal 0 0 1
    outer loop
      vertex -49 -34.85 25.4
      vertex -49 -27 25.4
      vertex -57 -27 25.4
    endloop
  endfacet
  facet normal 0 0 1
    outer loop
      vertex -60.579 38.1 25.4
      vertex -60.579 -38.1 25.4
      vertex -57 -27 25.4
    endloop
  endfacet
  facet normal 0 0 1
    outer loop
      vertex 50 -34.85 25.4
      vertex -49 -34.85 25.4
      vertex 60.579 -38.1 25.4
    endloop
  endfacet
  facet normal 0 0 1
    outer loop
      vertex -60.579 38.1 25.4
      vertex -57 -27 25.4
      vertex -57 27 25.4
    endloop
  endfacet
  facet normal 0 0 1
    outer loop
      vertex 50 27 25.4
      vertex 57.658 27 25.4
      vertex 50 34.85 25.4
    endloop
  endfacet
  facet normal 0 0 1
    outer loop
      vertex -60.579 38.1 25.4
      vertex -57 27 25.4
      vertex -49 27 25.4
    endloop
  endfacet
  facet normal 0 0 1
    outer loop
      vertex 60.579 38.1 25.4
      vertex -60.579 38.1 25.4
      vertex -49 34.85 25.4
    endloop
  endfacet
  facet normal 0 0 1
    outer loop
      vertex 60.579 38.1 25.4
      vertex -49 34.85 25.4
      vertex 50 34.85 25.4
    endloop
  endfacet
  facet normal 0 0 1
    outer loop
      vertex 57.658 27 25.4
      vertex 57.658 -27 25.4
      vertex 60.579 -38.1 25.4
    endloop
  endfacet
  facet normal 0 0 1
    outer loop
      vertex 60.579 38.1 25.4
      vertex 57.658 27 25.4
      vertex 60.579 -38.1 25.4
    endloop
  endfacet
  facet normal 0 0 1
    outer loop
      vertex 60.579 38.1 25.4
      vertex 50 34.85 25.4
      vertex 57.658 27 25.4
    endloop
  endfacet
  facet normal 0 0 1
    outer loop
      vertex 57.658 -27 25.4
      vertex 50 -27 25.4
      vertex 60.579 -38.1 25.4
    endloop
  endfacet
  facet normal 0 0 1
    outer loop
      vertex -57 -27 25.4
      vertex -60.579 -38.1 25.4
      vertex -49 -34.85 25.4
    endloop
  endfacet
  facet normal 0 0 1
    outer loop
      vertex -49 27 25.4
      vertex -49 34.85 25.4
      vertex -60.579 38.1 25.4
    endloop
  endfacet
  facet normal 0 0 1
    outer loop
      vertex 50 -27 25.4
      vertex 50 -34.85 25.4
      vertex 60.579 -38.1 25.4
    endloop
  endfacet
  facet normal 1 0 0
    outer loop
      vertex 60.579 -38.1 25.4
      vertex 60.579 -38.1 -25.4
      vertex 60.579 38.1 -25.4
    endloop
  endfacet
  facet normal 1 0 0
    outer loop
      vertex 60.579 38.1 25.4
      vertex 60.579 -38.1 25.4
      vertex 60.579 38.1 -25.4
    endloop
  endfacet
  facet normal 0.951057 6.86156e-17 0.309017
    outer loop
      vertex 22.4314 -38.1 -6.86622
      vertex 22.4314 -34.85 -6.86622
      vertex 21.825 -34.85 -5
    endloop
  endfacet
  facet normal 0.951057 6.86156e-17 0.309017
    outer loop
      vertex 21.825 -38.1 -5
      vertex 22.4314 -38.1 -6.86622
      vertex 21.825 -34.85 -5
    endloop
  endfacet
  facet normal 0.587785 1.79638e-16 0.809017
    outer loop
      vertex 24.0189 -38.1 -8.0196
      vertex 24.0189 -34.85 -8.0196
      vertex 22.4314 -34.85 -6.86622
    endloop
  endfacet
  facet normal 0.587785 1.79638e-16 0.809017
    outer loop
      vertex 22.4314 -38.1 -6.86622
      vertex 24.0189 -38.1 -8.0196
      vertex 22.4314 -34.85 -6.86622
    endloop
  endfacet
  facet normal 0 2.22045e-16 1
    outer loop
      vertex 25.9811 -38.1 -8.0196
      vertex 25.9811 -34.85 -8.0196
      vertex 24.0189 -34.85 -8.0196
    endloop
  endfacet
  facet normal 0 2.22045e-16 1
    outer loop
      vertex 24.0189 -38.1 -8.0196
      vertex 25.9811 -38.1 -8.0196
      vertex 24.0189 -34.85 -8.0196
    endloop
  endfacet
  facet normal -0.587785 1.79638e-16 0.809017
    outer loop
      vertex 27.5686 -38.1 -6.86622
      vertex 27.5686 -34.85 -6.86622
      vertex 25.9811 -34.85 -8.0196
    endloop
  endfacet
  facet normal -0.587785 1.79638e-16 0.809017
    outer loop
      vertex 25.9811 -38.1 -8.0196
      vertex 27.5686 -38.1 -6.86622
      vertex 25.9811 -34.85 -8.0196
    endloop
  endfacet
  facet normal -0.951057 6.86156e-17 0.309017
    outer loop
      vertex 28.175 -34.85 -5
      vertex 27.5686 -34.85 -6.86622
      vertex 28.175 -38.1 -5
    endloop
  endfacet
  facet normal -0.951057 6.86156e-17 0.309017
    outer loop
      vertex 28.175 -38.1 -5
      vertex 27.5686 -34.85 -6.86622
      vertex 27.5686 -38.1 -6.86622
    endloop
  endfacet
  facet normal -0.951057 -6.86156e-17 -0.309017
    outer loop
      vertex 28.175 -34.85 -5
      vertex 28.175 -38.1 -5
      vertex 27.5686 -34.85 -3.13378
    endloop
  endfacet
  facet normal -0.951057 -6.86156e-17 -0.309017
    outer loop
      vertex 27.5686 -34.85 -3.13378
      vertex 28.175 -38.1 -5
      vertex 27.5686 -38.1 -3.13378
    endloop
  endfacet
  facet normal -0.587785 -1.79638e-16 -0.809017
    outer loop
      vertex 27.5686 -34.85 -3.13378
      vertex 27.5686 -38.1 -3.13378
      vertex 25.9811 -34.85 -1.9804
    endloop
  endfacet
  facet normal -0.587785 -1.79638e-16 -0.809017
    outer loop
      vertex 25.9811 -34.85 -1.9804
      vertex 27.5686 -38.1 -3.13378
      vertex 25.9811 -38.1 -1.9804
    endloop
  endfacet
  facet normal 0 -2.22045e-16 -1
    outer loop
      vertex 25.9811 -34.85 -1.9804
      vertex 25.9811 -38.1 -1.9804
      vertex 24.0189 -34.85 -1.9804
    endloop
  endfacet
  facet normal 0 -2.22045e-16 -1
    outer loop
      vertex 24.0189 -34.85 -1.9804
      vertex 25.9811 -38.1 -1.9804
      vertex 24.0189 -38.1 -1.9804
    endloop
  endfacet
  facet normal 0.587785 -1.79638e-16 -0.809017
    outer loop
      vertex 24.0189 -34.85 -1.9804
      vertex 24.0189 -38.1 -1.9804
      vertex 22.4314 -34.85 -3.13378
    endloop
  endfacet
  facet normal 0.587785 -1.79638e-16 -0.809017
    outer loop
      vertex 22.4314 -34.85 -3.13378
      vertex 24.0189 -38.1 -1.9804
      vertex 22.4314 -38.1 -3.13378
    endloop
  endfacet
  facet normal 0.951057 -6.86156e-17 -0.309017
    outer loop
      vertex 21.825 -34.85 -5
      vertex 22.4314 -34.85 -3.13378
      vertex 22.4314 -38.1 -3.13378
    endloop
  endfacet
  facet normal 0.951057 -6.86156e-17 -0.309017
    outer loop
      vertex 21.825 -38.1 -5
      vertex 21.825 -34.85 -5
      vertex 22.4314 -38.1 -3.13378
    endloop
  endfacet
  facet normal 0.951057 6.86156e-17 0.309017
    outer loop
      vertex 32.4314 -38.1 -6.86622
      vertex 32.4314 -34.85 -6.86622
      vertex 31.825 -34.85 -5
    endloop
  endfacet
  facet normal 0.951057 6.86156e-17 0.309017
    outer loop
      vertex 31.825 -38.1 -5
      vertex 32.4314 -38.1 -6.86622
      vertex 31.825 -34.85 -5
    endloop
  endfacet
  facet normal 0.587785 1.79638e-16 0.809017
    outer loop
      vertex 34.0189 -38.1 -8.0196
      vertex 34.0189 -34.85 -8.0196
      vertex 32.4314 -34.85 -6.86622
    endloop
  endfacet
  facet normal 0.587785 1.79638e-16 0.809017
    outer loop
      vertex 32.4314 -38.1 -6.86622
      vertex 34.0189 -38.1 -8.0196
      vertex 32.4314 -34.85 -6.86622
    endloop
  endfacet
  facet normal 0 2.22045e-16 1
    outer loop
      vertex 35.9811 -38.1 -8.0196
      vertex 35.9811 -34.85 -8.0196
      vertex 34.0189 -34.85 -8.0196
    endloop
  endfacet
  facet normal 0 2.22045e-16 1
    outer loop
      vertex 34.0189 -38.1 -8.0196
      vertex 35.9811 -38.1 -8.0196
      vertex 34.0189 -34.85 -8.0196
    endloop
  endfacet
  facet normal -0.587785 1.79638e-16 0.809017
    outer loop
      vertex 37.5686 -38.1 -6.86622
      vertex 37.5686 -34.85 -6.86622
      vertex 35.9811 -34.85 -8.0196
    endloop
  endfacet
  facet normal -0.587785 1.79638e-16 0.809017
    outer loop
      vertex 35.9811 -38.1 -8.0196
      vertex 37.5686 -38.1 -6.86622
      vertex 35.9811 -34.85 -8.0196
    endloop
  endfacet
  facet normal -0.951057 6.86156e-17 0.309017
    outer loop
      vertex 38.175 -34.85 -5
      vertex 37.5686 -34.85 -6.86622
      vertex 38.175 -38.1 -5
    endloop
  endfacet
  facet normal -0.951057 6.86156e-17 0.309017
    outer loop
      vertex 38.175 -38.1 -5
      vertex 37.5686 -34.85 -6.86622
      vertex 37.5686 -38.1 -6.86622
    endloop
  endfacet
  facet normal -0.951057 -6.86156e-17 -0.309017
    outer loop
      vertex 38.175 -34.85 -5
      vertex 38.175 -38.1 -5
      vertex 37.5686 -34.85 -3.13378
    endloop
  endfacet
  facet normal -0.951057 -6.86156e-17 -0.309017
    outer loop
      vertex 37.5686 -34.85 -3.13378
      vertex 38.175 -38.1 -5
      vertex 37.5686 -38.1 -3.13378
    endloop
  endfacet
  facet normal -0.587785 -1.79638e-16 -0.809017
    outer loop
      vertex 37.5686 -34.85 -3.13378
      vertex 37.5686 -38.1 -3.13378
      vertex 35.9811 -34.85 -1.9804
    endloop
  endfacet
  facet normal -0.587785 -1.79638e-16 -0.809017
    outer loop
      vertex 35.9811 -34.85 -1.9804
      vertex 37.5686 -38.1 -3.13378
      vertex 35.9811 -38.1 -1.9804
    endloop
  endfacet
  facet normal 0 -2.22045e-16 -1
    outer loop
      vertex 35.9811 -34.85 -1.9804
      vertex 35.9811 -38.1 -1.9804
      vertex 34.0189 -34.85 -1.9804
    endloop
  endfacet
  facet normal 0 -2.22045e-16 -1
    outer loop
      vertex 34.0189 -34.85 -1.9804
      vertex 35.9811 -38.1 -1.9804
      vertex 34.0189 -38.1 -1.9804
    endloop
  endfacet
  facet normal 0.587785 -1.79638e-16 -0.809017
    outer loop
      vertex 34.0189 -34.85 -1.9804
      vertex 34.0189 -38.1 -1.9804
      vertex 32.4314 -34.85 -3.13378
    endloop
  endfacet
  facet normal 0.587785 -1.79638e-16 -0.809017
    outer loop
      vertex 32.4314 -34.85 -3.13378
      vertex 34.0189 -38.1 -1.9804
      vertex 32.4314 -38.1 -3.13378
    endloop
  endfacet
  facet normal 0.951057 -6.86156e-17 -0.309017
    outer loop
      vertex 31.825 -34.85 -5
      vertex 32.4314 -34.85 -3.13378
      vertex 32.4314 -38.1 -3.13378
    endloop
  endfacet
  facet normal 0.951057 -6.86156e-17 -0.309017
    outer loop
      vertex 31.825 -38.1 -5
      vertex 31.825 -34.85 -5
      vertex 32.4314 -38.1 -3.13378
    endloop
  endfacet
  facet normal 0.945817 -0.3247 0
    outer loop
      vertex -40.2356 22.8334 -25.4
      vertex -40.2356 22.8334 -18
      vertex -40.872 20.9799 -18
    endloop
  endfacet
  facet normal 0.945817 -0.3247 0
    outer loop
      vertex -40.872 20.9799 -25.4
      vertex -40.2356 22.8334 -25.4
      vertex -40.872 20.9799 -18
    endloop
  endfacet
  facet normal 1 0 0
    outer loop
      vertex -40.872 20.9799 -25.4
      vertex -40.872 20.9799 -18
      vertex -40.872 19.0201 -18
    endloop
  endfacet
  facet normal 1 0 0
    outer loop
      vertex -40.872 19.0201 -25.4
      vertex -40.872 20.9799 -25.4
      vertex -40.872 19.0201 -18
    endloop
  endfacet
  facet normal 0.789141 -0.614212 0
    outer loop
      vertex -39.032 24.3799 -25.4
      vertex -39.032 24.3799 -18
      vertex -40.2356 22.8334 -18
    endloop
  endfacet
  facet normal 0.789141 -0.614212 0
    outer loop
      vertex -40.2356 22.8334 -25.4
      vertex -39.032 24.3799 -25.4
      vertex -40.2356 22.8334 -18
    endloop
  endfacet
  facet normal 0.546948 -0.837167 0
    outer loop
      vertex -37.3914 25.4517 -25.4
      vertex -37.3914 25.4517 -18
      vertex -39.032 24.3799 -18
    endloop
  endfacet
  facet normal 0.546948 -0.837167 0
    outer loop
      vertex -39.032 24.3799 -25.4
      vertex -37.3914 25.4517 -25.4
      vertex -39.032 24.3799 -18
    endloop
  endfacet
  facet normal 0.245485 -0.9694 0
    outer loop
      vertex -35.4916 25.9328 -25.4
      vertex -35.4916 25.9328 -18
      vertex -37.3914 25.4517 -18
    endloop
  endfacet
  facet normal 0.245485 -0.9694 0
    outer loop
      vertex -37.3914 25.4517 -25.4
      vertex -35.4916 25.9328 -25.4
      vertex -37.3914 25.4517 -18
    endloop
  endfacet
  facet normal -0.0825795 -0.996584 0
    outer loop
      vertex -33.5386 25.771 -25.4
      vertex -33.5386 25.771 -18
      vertex -35.4916 25.9328 -18
    endloop
  endfacet
  facet normal -0.0825795 -0.996584 0
    outer loop
      vertex -35.4916 25.9328 -25.4
      vertex -33.5386 25.771 -25.4
      vertex -35.4916 25.9328 -18
    endloop
  endfacet
  facet normal -0.401695 -0.915773 0
    outer loop
      vertex -31.7439 24.9838 -25.4
      vertex -31.7439 24.9838 -18
      vertex -33.5386 25.771 -18
    endloop
  endfacet
  facet normal -0.401695 -0.915773 0
    outer loop
      vertex -33.5386 25.771 -25.4
      vertex -31.7439 24.9838 -25.4
      vertex -33.5386 25.771 -18
    endloop
  endfacet
  facet normal -0.677282 -0.735724 0
    outer loop
      vertex -30.3021 23.6565 -25.4
      vertex -30.3021 23.6565 -18
      vertex -31.7439 24.9838 -18
    endloop
  endfacet
  facet normal -0.677282 -0.735724 0
    outer loop
      vertex -31.7439 24.9838 -25.4
      vertex -30.3021 23.6565 -25.4
      vertex -31.7439 24.9838 -18
    endloop
  endfacet
  facet normal -0.879474 -0.475948 0
    outer loop
      vertex -29.3694 21.933 -18
      vertex -30.3021 23.6565 -18
      vertex -29.3694 21.933 -25.4
    endloop
  endfacet
  facet normal -0.879474 -0.475948 0
    outer loop
      vertex -29.3694 21.933 -25.4
      vertex -30.3021 23.6565 -18
      vertex -30.3021 23.6565 -25.4
    endloop
  endfacet
  facet normal -0.986361 -0.164595 0
    outer loop
      vertex -29.0468 20 -18
      vertex -29.3694 21.933 -18
      vertex -29.0468 20 -25.4
    endloop
  endfacet
  facet normal -0.986361 -0.164595 0
    outer loop
      vertex -29.0468 20 -25.4
      vertex -29.3694 21.933 -18
      vertex -29.3694 21.933 -25.4
    endloop
  endfacet
  facet normal -0.986361 0.164595 0
    outer loop
      vertex -29.0468 20 -18
      vertex -29.0468 20 -25.4
      vertex -29.3694 18.067 -18
    endloop
  endfacet
  facet normal -0.986361 0.164595 0
    outer loop
      vertex -29.3694 18.067 -18
      vertex -29.0468 20 -25.4
      vertex -29.3694 18.067 -25.4
    endloop
  endfacet
  facet normal -0.879474 0.475948 0
    outer loop
      vertex -29.3694 18.067 -18
      vertex -29.3694 18.067 -25.4
      vertex -30.3021 16.3435 -18
    endloop
  endfacet
  facet normal -0.879474 0.475948 0
    outer loop
      vertex -30.3021 16.3435 -18
      vertex -29.3694 18.067 -25.4
      vertex -30.3021 16.3435 -25.4
    endloop
  endfacet
  facet normal -0.677282 0.735724 0
    outer loop
      vertex -30.3021 16.3435 -18
      vertex -30.3021 16.3435 -25.4
      vertex -31.7439 15.0162 -18
    endloop
  endfacet
  facet normal -0.677282 0.735724 0
    outer loop
      vertex -31.7439 15.0162 -18
      vertex -30.3021 16.3435 -25.4
      vertex -31.7439 15.0162 -25.4
    endloop
  endfacet
  facet normal -0.401695 0.915773 0
    outer loop
      vertex -31.7439 15.0162 -18
      vertex -31.7439 15.0162 -25.4
      vertex -33.5386 14.229 -18
    endloop
  endfacet
  facet normal -0.401695 0.915773 0
    outer loop
      vertex -33.5386 14.229 -18
      vertex -31.7439 15.0162 -25.4
      vertex -33.5386 14.229 -25.4
    endloop
  endfacet
  facet normal -0.0825795 0.996584 0
    outer loop
      vertex -33.5386 14.229 -18
      vertex -33.5386 14.229 -25.4
      vertex -35.4916 14.0672 -18
    endloop
  endfacet
  facet normal -0.0825795 0.996584 0
    outer loop
      vertex -35.4916 14.0672 -18
      vertex -33.5386 14.229 -25.4
      vertex -35.4916 14.0672 -25.4
    endloop
  endfacet
  facet normal 0.245485 0.9694 0
    outer loop
      vertex -35.4916 14.0672 -18
      vertex -35.4916 14.0672 -25.4
      vertex -37.3914 14.5483 -18
    endloop
  endfacet
  facet normal 0.245485 0.9694 0
    outer loop
      vertex -37.3914 14.5483 -18
      vertex -35.4916 14.0672 -25.4
      vertex -37.3914 14.5483 -25.4
    endloop
  endfacet
  facet normal 0.546948 0.837167 0
    outer loop
      vertex -37.3914 14.5483 -18
      vertex -37.3914 14.5483 -25.4
      vertex -39.032 15.6201 -18
    endloop
  endfacet
  facet normal 0.546948 0.837167 0
    outer loop
      vertex -39.032 15.6201 -18
      vertex -37.3914 14.5483 -25.4
      vertex -39.032 15.6201 -25.4
    endloop
  endfacet
  facet normal 0.789141 0.614212 0
    outer loop
      vertex -40.2356 17.1666 -18
      vertex -39.032 15.6201 -18
      vertex -39.032 15.6201 -25.4
    endloop
  endfacet
  facet normal 0.789141 0.614212 0
    outer loop
      vertex -40.2356 17.1666 -25.4
      vertex -40.2356 17.1666 -18
      vertex -39.032 15.6201 -25.4
    endloop
  endfacet
  facet normal 0.945817 0.3247 0
    outer loop
      vertex -40.872 19.0201 -18
      vertex -40.2356 17.1666 -18
      vertex -40.2356 17.1666 -25.4
    endloop
  endfacet
  facet normal 0.945817 0.3247 0
    outer loop
      vertex -40.872 19.0201 -25.4
      vertex -40.872 19.0201 -18
      vertex -40.2356 17.1666 -25.4
    endloop
  endfacet
  facet normal 0.951057 -0.309017 0
    outer loop
      vertex -2.56863 -23.1338 -25.4
      vertex -2.56863 -23.1338 -18
      vertex -3.175 -25 -18
    endloop
  endfacet
  facet normal 0.951057 -0.309017 0
    outer loop
      vertex -3.175 -25 -25.4
      vertex -2.56863 -23.1338 -25.4
      vertex -3.175 -25 -18
    endloop
  endfacet
  facet normal 0.951057 0.309017 0
    outer loop
      vertex -3.175 -25 -18
      vertex -2.56863 -26.8662 -18
      vertex -2.56863 -26.8662 -25.4
    endloop
  endfacet
  facet normal 0.951057 0.309017 0
    outer loop
      vertex -3.175 -25 -25.4
      vertex -3.175 -25 -18
      vertex -2.56863 -26.8662 -25.4
    endloop
  endfacet
  facet normal 0.587785 -0.809017 0
    outer loop
      vertex -0.981129 -21.9804 -25.4
      vertex -0.981129 -21.9804 -18
      vertex -2.56863 -23.1338 -18
    endloop
  endfacet
  facet normal 0.587785 -0.809017 0
    outer loop
      vertex -2.56863 -23.1338 -25.4
      vertex -0.981129 -21.9804 -25.4
      vertex -2.56863 -23.1338 -18
    endloop
  endfacet
  facet normal 0 -1 0
    outer loop
      vertex 0.981129 -21.9804 -25.4
      vertex 0.981129 -21.9804 -18
      vertex -0.981129 -21.9804 -18
    endloop
  endfacet
  facet normal 0 -1 0
    outer loop
      vertex -0.981129 -21.9804 -25.4
      vertex 0.981129 -21.9804 -25.4
      vertex -0.981129 -21.9804 -18
    endloop
  endfacet
  facet normal -0.587785 -0.809017 0
    outer loop
      vertex 2.56863 -23.1338 -25.4
      vertex 2.56863 -23.1338 -18
      vertex 0.981129 -21.9804 -18
    endloop
  endfacet
  facet normal -0.587785 -0.809017 0
    outer loop
      vertex 0.981129 -21.9804 -25.4
      vertex 2.56863 -23.1338 -25.4
      vertex 0.981129 -21.9804 -18
    endloop
  endfacet
  facet normal -0.951057 -0.309017 0
    outer loop
      vertex 3.175 -25 -18
      vertex 2.56863 -23.1338 -18
      vertex 3.175 -25 -25.4
    endloop
  endfacet
  facet normal -0.951057 -0.309017 0
    outer loop
      vertex 3.175 -25 -25.4
      vertex 2.56863 -23.1338 -18
      vertex 2.56863 -23.1338 -25.4
    endloop
  endfacet
  facet normal -0.951057 0.309017 0
    outer loop
      vertex 3.175 -25 -18
      vertex 3.175 -25 -25.4
      vertex 2.56863 -26.8662 -18
    endloop
  endfacet
  facet normal -0.951057 0.309017 0
    outer loop
      vertex 2.56863 -26.8662 -18
      vertex 3.175 -25 -25.4
      vertex 2.56863 -26.8662 -25.4
    endloop
  endfacet
  facet normal -0.587785 0.809017 0
    outer loop
      vertex 2.56863 -26.8662 -18
      vertex 2.56863 -26.8662 -25.4
      vertex 0.981129 -28.0196 -18
    endloop
  endfacet
  facet normal -0.587785 0.809017 0
    outer loop
      vertex 0.981129 -28.0196 -18
      vertex 2.56863 -26.8662 -25.4
      vertex 0.981129 -28.0196 -25.4
    endloop
  endfacet
  facet normal 0 1 0
    outer loop
      vertex 0.981129 -28.0196 -18
      vertex 0.981129 -28.0196 -25.4
      vertex -0.981129 -28.0196 -18
    endloop
  endfacet
  facet normal 0 1 0
    outer loop
      vertex -0.981129 -28.0196 -18
      vertex 0.981129 -28.0196 -25.4
      vertex -0.981129 -28.0196 -25.4
    endloop
  endfacet
  facet normal 0.587785 0.809017 0
    outer loop
      vertex -0.981129 -28.0196 -18
      vertex -0.981129 -28.0196 -25.4
      vertex -2.56863 -26.8662 -18
    endloop
  endfacet
  facet normal 0.587785 0.809017 0
    outer loop
      vertex -2.56863 -26.8662 -18
      vertex -0.981129 -28.0196 -25.4
      vertex -2.56863 -26.8662 -25.4
    endloop
  endfacet
  facet normal 0.945817 -0.3247 0
    outer loop
      vertex 29.7644 22.8334 -25.4
      vertex 29.7644 22.8334 -18
      vertex 29.128 20.9799 -18
    endloop
  endfacet
  facet normal 0.945817 -0.3247 0
    outer loop
      vertex 29.128 20.9799 -25.4
      vertex 29.7644 22.8334 -25.4
      vertex 29.128 20.9799 -18
    endloop
  endfacet
  facet normal 1 0 0
    outer loop
      vertex 29.128 20.9799 -25.4
      vertex 29.128 20.9799 -18
      vertex 29.128 19.0201 -18
    endloop
  endfacet
  facet normal 1 0 0
    outer loop
      vertex 29.128 19.0201 -25.4
      vertex 29.128 20.9799 -25.4
      vertex 29.128 19.0201 -18
    endloop
  endfacet
  facet normal 0.789141 -0.614212 0
    outer loop
      vertex 30.968 24.3799 -25.4
      vertex 30.968 24.3799 -18
      vertex 29.7644 22.8334 -18
    endloop
  endfacet
  facet normal 0.789141 -0.614212 0
    outer loop
      vertex 29.7644 22.8334 -25.4
      vertex 30.968 24.3799 -25.4
      vertex 29.7644 22.8334 -18
    endloop
  endfacet
  facet normal 0.546948 -0.837167 0
    outer loop
      vertex 32.6086 25.4517 -25.4
      vertex 32.6086 25.4517 -18
      vertex 30.968 24.3799 -18
    endloop
  endfacet
  facet normal 0.546948 -0.837167 0
    outer loop
      vertex 30.968 24.3799 -25.4
      vertex 32.6086 25.4517 -25.4
      vertex 30.968 24.3799 -18
    endloop
  endfacet
  facet normal 0.245485 -0.9694 0
    outer loop
      vertex 34.5084 25.9328 -25.4
      vertex 34.5084 25.9328 -18
      vertex 32.6086 25.4517 -18
    endloop
  endfacet
  facet normal 0.245485 -0.9694 0
    outer loop
      vertex 32.6086 25.4517 -25.4
      vertex 34.5084 25.9328 -25.4
      vertex 32.6086 25.4517 -18
    endloop
  endfacet
  facet normal -0.0825795 -0.996584 0
    outer loop
      vertex 36.4614 25.771 -25.4
      vertex 36.4614 25.771 -18
      vertex 34.5084 25.9328 -18
    endloop
  endfacet
  facet normal -0.0825795 -0.996584 0
    outer loop
      vertex 34.5084 25.9328 -25.4
      vertex 36.4614 25.771 -25.4
      vertex 34.5084 25.9328 -18
    endloop
  endfacet
  facet normal -0.401695 -0.915773 0
    outer loop
      vertex 38.2561 24.9838 -25.4
      vertex 38.2561 24.9838 -18
      vertex 36.4614 25.771 -18
    endloop
  endfacet
  facet normal -0.401695 -0.915773 0
    outer loop
      vertex 36.4614 25.771 -25.4
      vertex 38.2561 24.9838 -25.4
      vertex 36.4614 25.771 -18
    endloop
  endfacet
  facet normal -0.677282 -0.735724 0
    outer loop
      vertex 39.6979 23.6565 -25.4
      vertex 39.6979 23.6565 -18
      vertex 38.2561 24.9838 -18
    endloop
  endfacet
  facet normal -0.677282 -0.735724 0
    outer loop
      vertex 38.2561 24.9838 -25.4
      vertex 39.6979 23.6565 -25.4
      vertex 38.2561 24.9838 -18
    endloop
  endfacet
  facet normal -0.879474 -0.475948 0
    outer loop
      vertex 40.6306 21.933 -18
      vertex 39.6979 23.6565 -18
      vertex 40.6306 21.933 -25.4
    endloop
  endfacet
  facet normal -0.879474 -0.475948 0
    outer loop
      vertex 40.6306 21.933 -25.4
      vertex 39.6979 23.6565 -18
      vertex 39.6979 23.6565 -25.4
    endloop
  endfacet
  facet normal -0.986361 -0.164595 0
    outer loop
      vertex 40.9531 20 -18
      vertex 40.6306 21.933 -18
      vertex 40.9531 20 -25.4
    endloop
  endfacet
  facet normal -0.986361 -0.164595 0
    outer loop
      vertex 40.9531 20 -25.4
      vertex 40.6306 21.933 -18
      vertex 40.6306 21.933 -25.4
    endloop
  endfacet
  facet normal -0.986361 0.164595 0
    outer loop
      vertex 40.9531 20 -18
      vertex 40.9531 20 -25.4
      vertex 40.6306 18.067 -18
    endloop
  endfacet
  facet normal -0.986361 0.164595 0
    outer loop
      vertex 40.6306 18.067 -18
      vertex 40.9531 20 -25.4
      vertex 40.6306 18.067 -25.4
    endloop
  endfacet
  facet normal -0.879474 0.475948 0
    outer loop
      vertex 40.6306 18.067 -18
      vertex 40.6306 18.067 -25.4
      vertex 39.6979 16.3435 -18
    endloop
  endfacet
  facet normal -0.879474 0.475948 0
    outer loop
      vertex 39.6979 16.3435 -18
      vertex 40.6306 18.067 -25.4
      vertex 39.6979 16.3435 -25.4
    endloop
  endfacet
  facet normal -0.677282 0.735724 0
    outer loop
      vertex 39.6979 16.3435 -18
      vertex 39.6979 16.3435 -25.4
      vertex 38.2561 15.0162 -18
    endloop
  endfacet
  facet normal -0.677282 0.735724 0
    outer loop
      vertex 38.2561 15.0162 -18
      vertex 39.6979 16.3435 -25.4
      vertex 38.2561 15.0162 -25.4
    endloop
  endfacet
  facet normal -0.401695 0.915773 0
    outer loop
      vertex 38.2561 15.0162 -18
      vertex 38.2561 15.0162 -25.4
      vertex 36.4614 14.229 -18
    endloop
  endfacet
  facet normal -0.401695 0.915773 0
    outer loop
      vertex 36.4614 14.229 -18
      vertex 38.2561 15.0162 -25.4
      vertex 36.4614 14.229 -25.4
    endloop
  endfacet
  facet normal -0.0825795 0.996584 0
    outer loop
      vertex 36.4614 14.229 -18
      vertex 36.4614 14.229 -25.4
      vertex 34.5084 14.0672 -18
    endloop
  endfacet
  facet normal -0.0825795 0.996584 0
    outer loop
      vertex 34.5084 14.0672 -18
      vertex 36.4614 14.229 -25.4
      vertex 34.5084 14.0672 -25.4
    endloop
  endfacet
  facet normal 0.245485 0.9694 0
    outer loop
      vertex 34.5084 14.0672 -18
      vertex 34.5084 14.0672 -25.4
      vertex 32.6086 14.5483 -18
    endloop
  endfacet
  facet normal 0.245485 0.9694 0
    outer loop
      vertex 32.6086 14.5483 -18
      vertex 34.5084 14.0672 -25.4
      vertex 32.6086 14.5483 -25.4
    endloop
  endfacet
  facet normal 0.546948 0.837167 0
    outer loop
      vertex 32.6086 14.5483 -18
      vertex 32.6086 14.5483 -25.4
      vertex 30.968 15.6201 -18
    endloop
  endfacet
  facet normal 0.546948 0.837167 0
    outer loop
      vertex 30.968 15.6201 -18
      vertex 32.6086 14.5483 -25.4
      vertex 30.968 15.6201 -25.4
    endloop
  endfacet
  facet normal 0.789141 0.614212 0
    outer loop
      vertex 29.7644 17.1666 -18
      vertex 30.968 15.6201 -18
      vertex 30.968 15.6201 -25.4
    endloop
  endfacet
  facet normal 0.789141 0.614212 0
    outer loop
      vertex 29.7644 17.1666 -25.4
      vertex 29.7644 17.1666 -18
      vertex 30.968 15.6201 -25.4
    endloop
  endfacet
  facet normal 0.945817 0.3247 0
    outer loop
      vertex 29.128 19.0201 -18
      vertex 29.7644 17.1666 -18
      vertex 29.7644 17.1666 -25.4
    endloop
  endfacet
  facet normal 0.945817 0.3247 0
    outer loop
      vertex 29.128 19.0201 -25.4
      vertex 29.128 19.0201 -18
      vertex 29.7644 17.1666 -25.4
    endloop
  endfacet
  facet normal 1 0 0
    outer loop
      vertex -57 27 -18
      vertex -57 27 25.4
      vertex -57 -27 25.4
    endloop
  endfacet
  facet normal 1 0 0
    outer loop
      vertex -57 -27 -18
      vertex -57 27 -18
      vertex -57 -27 25.4
    endloop
  endfacet
  facet normal 0 1 0
    outer loop
      vertex -57 -27 -18
      vertex -57 -27 25.4
      vertex -49 -27 -18
    endloop
  endfacet
  facet normal 0 1 0
    outer loop
      vertex -49 -27 -18
      vertex -57 -27 25.4
      vertex -49 -27 25.4
    endloop
  endfacet
  facet normal 1 0 0
    outer loop
      vertex -49 -34.85 25.4
      vertex -49 -34.85 -18
      vertex -49 -27 -18
    endloop
  endfacet
  facet normal 1 0 0
    outer loop
      vertex -49 -27 25.4
      vertex -49 -34.85 25.4
      vertex -49 -27 -18
    endloop
  endfacet
  facet normal 0 1 0
    outer loop
      vertex 24.0189 -34.85 -8.0196
      vertex 50 -34.85 -18
      vertex -49 -34.85 -18
    endloop
  endfacet
  facet normal 0 1 0
    outer loop
      vertex 27.5686 -34.85 -6.86622
      vertex 50 -34.85 -18
      vertex 25.9811 -34.85 -8.0196
    endloop
  endfacet
  facet normal 0 1 0
    outer loop
      vertex -49 -34.85 25.4
      vertex 22.4314 -34.85 -6.86622
      vertex -49 -34.85 -18
    endloop
  endfacet
  facet normal 0 1 0
    outer loop
      vertex 22.4314 -34.85 -6.86622
      vertex 24.0189 -34.85 -8.0196
      vertex -49 -34.85 -18
    endloop
  endfacet
  facet normal 0 1 0
    outer loop
      vertex 25.9811 -34.85 -8.0196
      vertex 50 -34.85 -18
      vertex 24.0189 -34.85 -8.0196
    endloop
  endfacet
  facet normal 0 1 0
    outer loop
      vertex 34.0189 -34.85 -8.0196
      vertex 50 -34.85 -18
      vertex 27.5686 -34.85 -6.86622
    endloop
  endfacet
  facet normal 0 1 0
    outer loop
      vertex 50 -34.85 25.4
      vertex 27.5686 -34.85 -6.86622
      vertex 28.175 -34.85 -5
    endloop
  endfacet
  facet normal 0 1 0
    outer loop
      vertex 50 -34.85 25.4
      vertex 28.175 -34.85 -5
      vertex 27.5686 -34.85 -3.13378
    endloop
  endfacet
  facet normal 0 1 0
    outer loop
      vertex 50 -34.85 25.4
      vertex 27.5686 -34.85 -3.13378
      vertex 25.9811 -34.85 -1.9804
    endloop
  endfacet
  facet normal 0 1 0
    outer loop
      vertex 50 -34.85 25.4
      vertex 25.9811 -34.85 -1.9804
      vertex -49 -34.85 25.4
    endloop
  endfacet
  facet normal 0 1 0
    outer loop
      vertex 22.4314 -34.85 -3.13378
      vertex -49 -34.85 25.4
      vertex 24.0189 -34.85 -1.9804
    endloop
  endfacet
  facet normal 0 1 0
    outer loop
      vertex 21.825 -34.85 -5
      vertex -49 -34.85 25.4
      vertex 22.4314 -34.85 -3.13378
    endloop
  endfacet
  facet normal 0 1 0
    outer loop
      vertex 24.0189 -34.85 -1.9804
      vertex -49 -34.85 25.4
      vertex 25.9811 -34.85 -1.9804
    endloop
  endfacet
  facet normal 0 1 0
    outer loop
      vertex 35.9811 -34.85 -8.0196
      vertex 50 -34.85 -18
      vertex 34.0189 -34.85 -8.0196
    endloop
  endfacet
  facet normal 0 1 0
    outer loop
      vertex 37.5686 -34.85 -3.13378
      vertex 50 -34.85 25.4
      vertex 38.175 -34.85 -5
    endloop
  endfacet
  facet normal 0 1 0
    outer loop
      vertex 31.825 -34.85 -5
      vertex 32.4314 -34.85 -6.86622
      vertex 27.5686 -34.85 -6.86622
    endloop
  endfacet
  facet normal 0 1 0
    outer loop
      vertex 32.4314 -34.85 -6.86622
      vertex 34.0189 -34.85 -8.0196
      vertex 27.5686 -34.85 -6.86622
    endloop
  endfacet
  facet normal 0 1 0
    outer loop
      vertex 37.5686 -34.85 -6.86622
      vertex 50 -34.85 -18
      vertex 35.9811 -34.85 -8.0196
    endloop
  endfacet
  facet normal 0 1 0
    outer loop
      vertex 50 -34.85 25.4
      vertex 50 -34.85 -18
      vertex 37.5686 -34.85 -6.86622
    endloop
  endfacet
  facet normal 0 1 0
    outer loop
      vertex 50 -34.85 25.4
      vertex 37.5686 -34.85 -6.86622
      vertex 38.175 -34.85 -5
    endloop
  endfacet
  facet normal 0 1 0
    outer loop
      vertex 34.0189 -34.85 -1.9804
      vertex 50 -34.85 25.4
      vertex 35.9811 -34.85 -1.9804
    endloop
  endfacet
  facet normal 0 1 0
    outer loop
      vertex 50 -34.85 25.4
      vertex 37.5686 -34.85 -3.13378
      vertex 35.9811 -34.85 -1.9804
    endloop
  endfacet
  facet normal 0 1 0
    outer loop
      vertex 31.825 -34.85 -5
      vertex 27.5686 -34.85 -6.86622
      vertex 32.4314 -34.85 -3.13378
    endloop
  endfacet
  facet normal 0 1 0
    outer loop
      vertex 50 -34.85 25.4
      vertex 34.0189 -34.85 -1.9804
      vertex 32.4314 -34.85 -3.13378
    endloop
  endfacet
  facet normal 0 1 0
    outer loop
      vertex 50 -34.85 25.4
      vertex 32.4314 -34.85 -3.13378
      vertex 27.5686 -34.85 -6.86622
    endloop
  endfacet
  facet normal 0 1 0
    outer loop
      vertex 22.4314 -34.85 -6.86622
      vertex -49 -34.85 25.4
      vertex 21.825 -34.85 -5
    endloop
  endfacet
  facet normal -1 0 0
    outer loop
      vertex 50 -34.85 -18
      vertex 50 -34.85 25.4
      vertex 50 -27 -18
    endloop
  endfacet
  facet normal -1 0 0
    outer loop
      vertex 50 -27 -18
      vertex 50 -34.85 25.4
      vertex 50 -27 25.4
    endloop
  endfacet
  facet normal 0 1 0
    outer loop
      vertex 50 -27 -18
      vertex 50 -27 25.4
      vertex 57.658 -27 -18
    endloop
  endfacet
  facet normal 0 1 0
    outer loop
      vertex 57.658 -27 -18
      vertex 50 -27 25.4
      vertex 57.658 -27 25.4
    endloop
  endfacet
  facet normal -1 0 0
    outer loop
      vertex 57.658 27 25.4
      vertex 57.658 27 -18
      vertex 57.658 -27 25.4
    endloop
  endfacet
  facet normal -1 0 0
    outer loop
      vertex 57.658 -27 25.4
      vertex 57.658 27 -18
      vertex 57.658 -27 -18
    endloop
  endfacet
  facet normal 0 -1 0
    outer loop
      vertex 50 27 25.4
      vertex 50 27 -18
      vertex 57.658 27 -18
    endloop
  endfacet
  facet normal 0 -1 0
    outer loop
      vertex 57.658 27 25.4
      vertex 50 27 25.4
      vertex 57.658 27 -18
    endloop
  endfacet
  facet normal -1 0 0
    outer loop
      vertex 50 27 -18
      vertex 50 27 25.4
      vertex 50 34.85 -18
    endloop
  endfacet
  facet normal -1 0 0
    outer loop
      vertex 50 34.85 -18
      vertex 50 27 25.4
      vertex 50 34.85 25.4
    endloop
  endfacet
  facet normal 0 -1 0
    outer loop
      vertex 50 34.85 -18
      vertex 50 34.85 25.4
      vertex -49 34.85 25.4
    endloop
  endfacet
  facet normal 0 -1 0
    outer loop
      vertex -49 34.85 -18
      vertex 50 34.85 -18
      vertex -49 34.85 25.4
    endloop
  endfacet
  facet normal 1 0 0
    outer loop
      vertex -49 27 25.4
      vertex -49 27 -18
      vertex -49 34.85 -18
    endloop
  endfacet
  facet normal 1 0 0
    outer loop
      vertex -49 34.85 25.4
      vertex -49 27 25.4
      vertex -49 34.85 -18
    endloop
  endfacet
  facet normal 0 -1 0
    outer loop
      vertex -57 27 25.4
      vertex -57 27 -18
      vertex -49 27 -18
    endloop
  endfacet
  facet normal 0 -1 0
    outer loop
      vertex -49 27 25.4
      vertex -57 27 25.4
      vertex -49 27 -18
    endloop
  endfacet
  facet normal 0 0 1
    outer loop
      vertex -49 -27 -18
      vertex -49 -34.85 -18
      vertex 50 -34.85 -18
    endloop
  endfacet
  facet normal 0 0 1
    outer loop
      vertex -0.981129 -28.0196 -18
      vertex -49 -27 -18
      vertex 50 -34.85 -18
    endloop
  endfacet
  facet normal 0 0 1
    outer loop
      vertex 57.658 27 -18
      vertex 50 -27 -18
      vertex 57.658 -27 -18
    endloop
  endfacet
  facet normal 0 0 1
    outer loop
      vertex 38.2561 15.0162 -18
      vertex 36.4614 14.229 -18
      vertex -2.56863 -23.1338 -18
    endloop
  endfacet
  facet normal 0 0 1
    outer loop
      vertex 40.9531 20 -18
      vertex 40.6306 18.067 -18
      vertex 57.658 27 -18
    endloop
  endfacet
  facet normal 0 0 1
    outer loop
      vertex -57 27 -18
      vertex -49 -27 -18
      vertex -49 27 -18
    endloop
  endfacet
  facet normal 0 0 1
    outer loop
      vertex -49 34.85 -18
      vertex -49 27 -18
      vertex 50 34.85 -18
    endloop
  endfacet
  facet normal 0 0 1
    outer loop
      vertex -35.4916 25.9328 -18
      vertex -33.5386 25.771 -18
      vertex 50 34.85 -18
    endloop
  endfacet
  facet normal 0 0 1
    outer loop
      vertex -30.3021 16.3435 -18
      vertex -31.7439 15.0162 -18
      vertex -49 -27 -18
    endloop
  endfacet
  facet normal 0 0 1
    outer loop
      vertex -49 27 -18
      vertex -49 -27 -18
      vertex -40.872 20.9799 -18
    endloop
  endfacet
  facet normal 0 0 1
    outer loop
      vertex -30.3021 23.6565 -18
      vertex -29.3694 21.933 -18
      vertex 50 34.85 -18
    endloop
  endfacet
  facet normal 0 0 1
    outer loop
      vertex -49 27 -18
      vertex -40.872 20.9799 -18
      vertex -40.2356 22.8334 -18
    endloop
  endfacet
  facet normal 0 0 1
    outer loop
      vertex -31.7439 24.9838 -18
      vertex -30.3021 23.6565 -18
      vertex 50 34.85 -18
    endloop
  endfacet
  facet normal 0 0 1
    outer loop
      vertex -49 27 -18
      vertex -40.2356 22.8334 -18
      vertex -39.032 24.3799 -18
    endloop
  endfacet
  facet normal 0 0 1
    outer loop
      vertex -33.5386 25.771 -18
      vertex -31.7439 24.9838 -18
      vertex 50 34.85 -18
    endloop
  endfacet
  facet normal 0 0 1
    outer loop
      vertex -49 27 -18
      vertex -39.032 24.3799 -18
      vertex -37.3914 25.4517 -18
    endloop
  endfacet
  facet normal 0 0 1
    outer loop
      vertex -49 27 -18
      vertex -35.4916 25.9328 -18
      vertex 50 34.85 -18
    endloop
  endfacet
  facet normal 0 0 1
    outer loop
      vertex -49 27 -18
      vertex -37.3914 25.4517 -18
      vertex -35.4916 25.9328 -18
    endloop
  endfacet
  facet normal 0 0 1
    outer loop
      vertex -29.3694 21.933 -18
      vertex -29.0468 20 -18
      vertex 50 34.85 -18
    endloop
  endfacet
  facet normal 0 0 1
    outer loop
      vertex -29.0468 20 -18
      vertex -29.3694 18.067 -18
      vertex 50 34.85 -18
    endloop
  endfacet
  facet normal 0 0 1
    outer loop
      vertex -30.3021 16.3435 -18
      vertex -49 -27 -18
      vertex -29.3694 18.067 -18
    endloop
  endfacet
  facet normal 0 0 1
    outer loop
      vertex -31.7439 15.0162 -18
      vertex -33.5386 14.229 -18
      vertex -49 -27 -18
    endloop
  endfacet
  facet normal 0 0 1
    outer loop
      vertex -0.981129 -21.9804 -18
      vertex 0.981129 -21.9804 -18
      vertex 57.658 27 -18
    endloop
  endfacet
  facet normal 0 0 1
    outer loop
      vertex -35.4916 14.0672 -18
      vertex -49 -27 -18
      vertex -33.5386 14.229 -18
    endloop
  endfacet
  facet normal 0 0 1
    outer loop
      vertex -37.3914 14.5483 -18
      vertex -49 -27 -18
      vertex -35.4916 14.0672 -18
    endloop
  endfacet
  facet normal 0 0 1
    outer loop
      vertex -39.032 15.6201 -18
      vertex -49 -27 -18
      vertex -37.3914 14.5483 -18
    endloop
  endfacet
  facet normal 0 0 1
    outer loop
      vertex -40.2356 17.1666 -18
      vertex -49 -27 -18
      vertex -39.032 15.6201 -18
    endloop
  endfacet
  facet normal 0 0 1
    outer loop
      vertex -40.872 19.0201 -18
      vertex -49 -27 -18
      vertex -40.2356 17.1666 -18
    endloop
  endfacet
  facet normal 0 0 1
    outer loop
      vertex -40.872 20.9799 -18
      vertex -49 -27 -18
      vertex -40.872 19.0201 -18
    endloop
  endfacet
  facet normal 0 0 1
    outer loop
      vertex 2.56863 -26.8662 -18
      vertex 0.981129 -28.0196 -18
      vertex 50 -27 -18
    endloop
  endfacet
  facet normal 0 0 1
    outer loop
      vertex -2.56863 -23.1338 -18
      vertex -49 -27 -18
      vertex -3.175 -25 -18
    endloop
  endfacet
  facet normal 0 0 1
    outer loop
      vertex 36.4614 14.229 -18
      vertex -49 -27 -18
      vertex -2.56863 -23.1338 -18
    endloop
  endfacet
  facet normal 0 0 1
    outer loop
      vertex 3.175 -25 -18
      vertex 2.56863 -26.8662 -18
      vertex 50 -27 -18
    endloop
  endfacet
  facet normal 0 0 1
    outer loop
      vertex 57.658 27 -18
      vertex -2.56863 -23.1338 -18
      vertex -0.981129 -21.9804 -18
    endloop
  endfacet
  facet normal 0 0 1
    outer loop
      vertex 57.658 27 -18
      vertex 0.981129 -21.9804 -18
      vertex 50 -27 -18
    endloop
  endfacet
  facet normal 0 0 1
    outer loop
      vertex 0.981129 -21.9804 -18
      vertex 2.56863 -23.1338 -18
      vertex 50 -27 -18
    endloop
  endfacet
  facet normal 0 0 1
    outer loop
      vertex 2.56863 -23.1338 -18
      vertex 3.175 -25 -18
      vertex 50 -27 -18
    endloop
  endfacet
  facet normal 0 0 1
    outer loop
      vertex 29.128 20.9799 -18
      vertex 29.7644 22.8334 -18
      vertex -49 -27 -18
    endloop
  endfacet
  facet normal 0 0 1
    outer loop
      vertex 38.2561 24.9838 -18
      vertex 39.6979 23.6565 -18
      vertex 50 27 -18
    endloop
  endfacet
  facet normal 0 0 1
    outer loop
      vertex 50 -27 -18
      vertex 0.981129 -28.0196 -18
      vertex 50 -34.85 -18
    endloop
  endfacet
  facet normal 0 0 1
    outer loop
      vertex 0.981129 -28.0196 -18
      vertex -0.981129 -28.0196 -18
      vertex 50 -34.85 -18
    endloop
  endfacet
  facet normal 0 0 1
    outer loop
      vertex 34.5084 25.9328 -18
      vertex 36.4614 25.771 -18
      vertex 50 34.85 -18
    endloop
  endfacet
  facet normal 0 0 1
    outer loop
      vertex -3.175 -25 -18
      vertex -49 -27 -18
      vertex -2.56863 -26.8662 -18
    endloop
  endfacet
  facet normal 0 0 1
    outer loop
      vertex 32.6086 25.4517 -18
      vertex 34.5084 25.9328 -18
      vertex 50 34.85 -18
    endloop
  endfacet
  facet normal 0 0 1
    outer loop
      vertex 40.6306 21.933 -18
      vertex 40.9531 20 -18
      vertex 50 27 -18
    endloop
  endfacet
  facet normal 0 0 1
    outer loop
      vertex -29.3694 18.067 -18
      vertex -49 -27 -18
      vertex 29.7644 22.8334 -18
    endloop
  endfacet
  facet normal 0 0 1
    outer loop
      vertex -29.3694 18.067 -18
      vertex 29.7644 22.8334 -18
      vertex 30.968 24.3799 -18
    endloop
  endfacet
  facet normal 0 0 1
    outer loop
      vertex -29.3694 18.067 -18
      vertex 32.6086 25.4517 -18
      vertex 50 34.85 -18
    endloop
  endfacet
  facet normal 0 0 1
    outer loop
      vertex -29.3694 18.067 -18
      vertex 30.968 24.3799 -18
      vertex 32.6086 25.4517 -18
    endloop
  endfacet
  facet normal 0 0 1
    outer loop
      vertex 50 34.85 -18
      vertex 36.4614 25.771 -18
      vertex 50 27 -18
    endloop
  endfacet
  facet normal 0 0 1
    outer loop
      vertex 36.4614 25.771 -18
      vertex 38.2561 24.9838 -18
      vertex 50 27 -18
    endloop
  endfacet
  facet normal 0 0 1
    outer loop
      vertex 29.7644 17.1666 -18
      vertex 29.128 19.0201 -18
      vertex -49 -27 -18
    endloop
  endfacet
  facet normal 0 0 1
    outer loop
      vertex 39.6979 23.6565 -18
      vertex 40.6306 21.933 -18
      vertex 50 27 -18
    endloop
  endfacet
  facet normal 0 0 1
    outer loop
      vertex 50 27 -18
      vertex 40.9531 20 -18
      vertex 57.658 27 -18
    endloop
  endfacet
  facet normal 0 0 1
    outer loop
      vertex 34.5084 14.0672 -18
      vertex 32.6086 14.5483 -18
      vertex -49 -27 -18
    endloop
  endfacet
  facet normal 0 0 1
    outer loop
      vertex 57.658 27 -18
      vertex 39.6979 16.3435 -18
      vertex -2.56863 -23.1338 -18
    endloop
  endfacet
  facet normal 0 0 1
    outer loop
      vertex 57.658 27 -18
      vertex 40.6306 18.067 -18
      vertex 39.6979 16.3435 -18
    endloop
  endfacet
  facet normal 0 0 1
    outer loop
      vertex 39.6979 16.3435 -18
      vertex 38.2561 15.0162 -18
      vertex -2.56863 -23.1338 -18
    endloop
  endfacet
  facet normal 0 0 1
    outer loop
      vertex 34.5084 14.0672 -18
      vertex -49 -27 -18
      vertex 36.4614 14.229 -18
    endloop
  endfacet
  facet normal 0 0 1
    outer loop
      vertex 32.6086 14.5483 -18
      vertex 30.968 15.6201 -18
      vertex -49 -27 -18
    endloop
  endfacet
  facet normal 0 0 1
    outer loop
      vertex 30.968 15.6201 -18
      vertex 29.7644 17.1666 -18
      vertex -49 -27 -18
    endloop
  endfacet
  facet normal 0 0 1
    outer loop
      vertex 29.128 20.9799 -18
      vertex -49 -27 -18
      vertex 29.128 19.0201 -18
    endloop
  endfacet
  facet normal 0 0 1
    outer loop
      vertex -57 -27 -18
      vertex -49 -27 -18
      vertex -57 27 -18
    endloop
  endfacet
  facet normal 0 0 1
    outer loop
      vertex -0.981129 -28.0196 -18
      vertex -2.56863 -26.8662 -18
      vertex -49 -27 -18
    endloop
  endfacet
endsolid OpenSCAD_Model
